<?xml version="1.0" encoding="UTF-8" standalone="no"?>
<svg
   xmlns:dc="http://purl.org/dc/elements/1.1/"
   xmlns:cc="http://creativecommons.org/ns#"
   xmlns:rdf="http://www.w3.org/1999/02/22-rdf-syntax-ns#"
   xmlns:svg="http://www.w3.org/2000/svg"
   xmlns="http://www.w3.org/2000/svg"
   xmlns:sodipodi="http://sodipodi.sourceforge.net/DTD/sodipodi-0.dtd"
   xmlns:inkscape="http://www.inkscape.org/namespaces/inkscape"
   width="75pt"
   height="75pt"
   viewBox="0 0 75.456081 75"
   version="1.1"
   id="svg2051"
   sodipodi:docname="egg.svg"
   inkscape:version="1.0.2 (e86c870879, 2021-01-15)">
  <metadata
     id="metadata2057">
    <rdf:RDF>
      <cc:Work
         rdf:about="">
        <dc:format>image/svg+xml</dc:format>
        <dc:type
           rdf:resource="http://purl.org/dc/dcmitype/StillImage" />
        <dc:title></dc:title>
      </cc:Work>
    </rdf:RDF>
  </metadata>
  <defs
     id="defs2055" />
  <sodipodi:namedview
     pagecolor="#ffffff"
     bordercolor="#666666"
     borderopacity="1"
     objecttolerance="10"
     gridtolerance="10"
     guidetolerance="10"
     inkscape:pageopacity="0"
     inkscape:pageshadow="2"
     inkscape:window-width="640"
     inkscape:window-height="480"
     id="namedview2053"
     showgrid="false"
     fit-margin-top="0"
     fit-margin-left="0"
     fit-margin-right="0"
     fit-margin-bottom="0"
     inkscape:zoom="5.4679054"
     inkscape:cx="46.826425"
     inkscape:cy="26.354935"
     inkscape:current-layer="svg2051" />
  <polygon
     fill="none"
     stroke="#000000"
     points="54.91,-3.16 56.41,-3.71 57.82,-4.31 59.13,-4.94 60.35,-5.61 61.46,-6.31 62.47,-7.04 63.37,-7.8 64.16,-8.59 64.85,-9.41 65.42,-10.25 65.89,-11.11 66.24,-11.99 66.49,-12.89 66.63,-13.8 66.67,-14.72 66.61,-15.65 66.45,-16.59 66.19,-17.53 65.84,-18.47 65.4,-19.41 64.88,-20.35 64.28,-21.28 63.61,-22.2 62.86,-23.11 62.05,-24.01 61.17,-24.89 60.24,-25.75 59.25,-26.59 58.22,-27.41 57.14,-28.2 56.03,-28.96 54.87,-29.69 53.69,-30.39 52.47,-31.06 51.23,-31.69 49.97,-32.29 48.69,-32.84 47.39,-33.35 46.08,-33.82 44.75,-34.25 43.42,-34.64 42.07,-34.97 40.72,-35.26 39.37,-35.51 38.01,-35.7 36.64,-35.85 35.28,-35.95 33.91,-36 32.54,-36 31.17,-35.95 29.8,-35.85 28.44,-35.7 27.08,-35.51 25.72,-35.26 24.37,-34.97 23.03,-34.64 21.69,-34.25 20.37,-33.82 19.05,-33.35 17.76,-32.84 16.47,-32.29 15.21,-31.69 13.97,-31.06 12.76,-30.39 11.57,-29.69 10.42,-28.96 9.3,-28.2 8.22,-27.41 7.19,-26.59 6.21,-25.75 5.27,-24.89 4.4,-24.01 3.59,-23.11 2.84,-22.2 2.16,-21.28 1.56,-20.35 1.04,-19.41 0.61,-18.47 0.26,-17.53 0,-16.59 -0.16,-15.65 -0.22,-14.72 -0.19,-13.8 -0.04,-12.89 0.2,-11.99 0.56,-11.11 1.03,-10.25 1.6,-9.41 2.28,-8.59 3.08,-7.8 3.98,-7.04 4.99,-6.31 6.1,-5.61 7.31,-4.94 8.63,-4.31 10.03,-3.71 11.53,-3.16 13.11,-2.65 14.78,-2.18 16.51,-1.75 18.31,-1.36 20.18,-1.03 22.09,-0.74 24.05,-0.49 26.05,-0.3 28.08,-0.15 30.13,-0.05 32.19,0 34.26,0 36.32,-0.05 38.37,-0.15 40.4,-0.3 42.39,-0.49 44.36,-0.74 46.27,-1.03 48.13,-1.36 49.94,-1.75 51.67,-2.18 53.33,-2.65 "
     id="polygon2045"
     transform="translate(4.5027101,55.5)"
     style="fill:#ffffff;stroke:#000080;stroke-width:3.7728;stroke-miterlimit:4;stroke-dasharray:none" />
</svg>
