<?xml version="1.0" encoding="UTF-8" standalone="no"?>
<svg
   xmlns:dc="http://purl.org/dc/elements/1.1/"
   xmlns:cc="http://creativecommons.org/ns#"
   xmlns:rdf="http://www.w3.org/1999/02/22-rdf-syntax-ns#"
   xmlns:svg="http://www.w3.org/2000/svg"
   xmlns="http://www.w3.org/2000/svg"
   xmlns:sodipodi="http://sodipodi.sourceforge.net/DTD/sodipodi-0.dtd"
   xmlns:inkscape="http://www.inkscape.org/namespaces/inkscape"
   width="62pt"
   height="44pt"
   viewBox="0.00 0.00 62.00 44.00"
   version="1.1"
   id="svg16"
   sodipodi:docname="icon.svg"
   inkscape:version="1.0.2 (e86c870879, 2021-01-15)">
  <metadata
     id="metadata22">
    <rdf:RDF>
      <cc:Work
         rdf:about="">
        <dc:format>image/svg+xml</dc:format>
        <dc:type
           rdf:resource="http://purl.org/dc/dcmitype/StillImage" />
      </cc:Work>
    </rdf:RDF>
  </metadata>
  <defs
     id="defs20" />
  <sodipodi:namedview
     pagecolor="#ffffff"
     bordercolor="#666666"
     borderopacity="1"
     objecttolerance="10"
     gridtolerance="10"
     guidetolerance="10"
     inkscape:pageopacity="0"
     inkscape:pageshadow="2"
     inkscape:window-width="640"
     inkscape:window-height="480"
     id="namedview18"
     showgrid="false"
     inkscape:zoom="11.908321"
     inkscape:cx="41.333333"
     inkscape:cy="29.333333"
     inkscape:current-layer="svg16"
     inkscape:document-rotation="0" />
  <polygon
     fill="#ffffff"
     stroke="transparent"
     points="58,-40 58,4 -4,4 -4,-40 "
     id="polygon4"
     transform="translate(4,40)" />
  <polygon
     fill="none"
     stroke="#000080"
     points="0,0 54,0 54,-36 12,-36 12,-40 0,-40 "
     id="polygon8"
     transform="translate(4,40)" />
  <polyline
     fill="none"
     stroke="#000080"
     points="0,-36 12,-36 "
     id="polyline10"
     transform="translate(4,40)" />
  <g
     aria-label="Gviz"
     id="text839"
     style="font-size:22px;line-height:125%;font-family:'Nimbus Sans';-inkscape-font-specification:'Nimbus Sans';letter-spacing:0px;word-spacing:0px;writing-mode:lr-tb;fill:none;stroke:#000000;stroke-width:0.75px;stroke-linecap:butt;stroke-linejoin:miter;stroke-opacity:1">
    <path
       d="m 23.432038,21.274001 h -6.424 v 2.75 h 3.652 c -0.088,0.902 -0.308,1.452 -0.792,2.024 -0.792,0.968 -2.024,1.54 -3.278,1.54 -2.684,0 -4.576,-2.332 -4.576,-5.632 0,-3.454 1.672,-5.544 4.488,-5.544 1.144,0 2.112,0.33 2.838,0.968 0.462,0.396 0.704,0.77 0.99,1.606 h 3.102 c -0.396,-3.322 -3.08,-5.39 -6.952,-5.39 -4.62,0 -7.7659999,3.41 -7.7659999,8.404 0,4.862 3.1679999,8.404 7.5019999,8.404 2.156,0 3.608,-0.77 4.84,-2.574 l 0.396,2.112 h 1.98 z"
       style="font-style:normal;font-variant:normal;font-weight:bold;font-stretch:normal;font-size:22px;font-family:'Nimbus Sans';-inkscape-font-specification:'Nimbus Sans Bold';fill:#000080;stroke:#000080;stroke-width:0.75px"
       id="path834" />
    <path
       d="m 32.606035,29.898001 4.092,-11.88 h -3.256 l -2.398,8.69 -2.574,-8.69 h -3.256 l 4.158,11.88 z"
       style="font-style:normal;font-variant:normal;font-weight:bold;font-stretch:normal;font-size:22px;font-family:'Nimbus Sans';-inkscape-font-specification:'Nimbus Sans Bold';fill:#000080;stroke:#000080;stroke-width:0.75px"
       id="path836" />
    <path
       d="m 41.582007,18.018001 h -3.08 v 11.88 h 3.08 z m 0,-4.158 h -3.08 v 2.75 h 3.08 z"
       style="font-style:normal;font-variant:normal;font-weight:bold;font-stretch:normal;font-size:22px;font-family:'Nimbus Sans';-inkscape-font-specification:'Nimbus Sans Bold';fill:#000080;stroke:#000080;stroke-width:0.75px"
       id="path838" />
    <path
       d="m 53.087963,18.018001 h -9.24 v 2.486 h 5.478 l -5.874,6.908 v 2.486 h 9.834 v -2.486 h -6.028 l 5.83,-6.908 z"
       style="font-style:normal;font-variant:normal;font-weight:bold;font-stretch:normal;font-size:22px;font-family:'Nimbus Sans';-inkscape-font-specification:'Nimbus Sans Bold';fill:#000080;stroke:#000080;stroke-width:0.75px"
       id="path840" />
  </g>
</svg>
