<?xml version="1.0" encoding="UTF-8" standalone="no"?>
<svg
   xmlns:dc="http://purl.org/dc/elements/1.1/"
   xmlns:cc="http://creativecommons.org/ns#"
   xmlns:rdf="http://www.w3.org/1999/02/22-rdf-syntax-ns#"
   xmlns:svg="http://www.w3.org/2000/svg"
   xmlns="http://www.w3.org/2000/svg"
   xmlns:sodipodi="http://sodipodi.sourceforge.net/DTD/sodipodi-0.dtd"
   xmlns:inkscape="http://www.inkscape.org/namespaces/inkscape"
   id="svg2"
   viewBox="0 0 16 16"
   version="1.1"
   inkscape:version="1.0.2 (e86c870879, 2021-01-15)"
   sodipodi:docname="question.svg">
  <defs
     id="defs10" />
  <sodipodi:namedview
     pagecolor="#ffffff"
     bordercolor="#666666"
     borderopacity="1"
     objecttolerance="10"
     gridtolerance="10"
     guidetolerance="10"
     inkscape:pageopacity="0"
     inkscape:pageshadow="2"
     inkscape:window-width="640"
     inkscape:window-height="480"
     id="namedview8"
     showgrid="false"
     inkscape:zoom="61.75"
     inkscape:cx="8"
     inkscape:cy="8"
     inkscape:current-layer="svg2" />
  <path
     id="path3797"
     style="fill:#000080"
     d="m 11.805,5.7 c -8e-6,0.3223 -0.04273,0.6055 -0.12817,0.8496 -0.08546,0.2441 -0.19898,0.4627 -0.34058,0.6556 -0.14161,0.1929 -0.30274,0.3661 -0.4834,0.52 -0.18067,0.1539 -0.36622,0.299 -0.55664,0.4357 -0.19044,0.1368 -0.3772,0.271 -0.5603,0.403 C 9.5528,8.6957 9.388,8.8361 9.24153,8.985 9.09504,9.1338 8.97541,9.2975 8.88264,9.4757 8.78986,9.654 8.73859,9.8601 8.72883,10.0946 H 6.77323 C 6.79764,9.6796 6.88675,9.3244 7.04056,9.0288 7.19436,8.7334 7.38113,8.476 7.60086,8.2561 7.82058,8.0364 8.05496,7.84 8.30398,7.6665 8.553,7.4933 8.78371,7.3162 8.99612,7.1355 9.20852,6.955 9.3843,6.7584 9.52346,6.5459 9.66261,6.3336 9.73219,6.081 9.7322,5.7879 9.732193,5.3583 9.59181,5.0188 9.31106,4.7698 9.03029,4.5208 8.63112,4.3963 8.11356,4.3963 7.86453,4.3963 7.63504,4.4343 7.42508,4.5098 7.21512,4.5858 7.03079,4.6917 6.8721,4.8284 6.71341,4.9652 6.58279,5.1312 6.48026,5.3266 6.37772,5.5219 6.3118,5.7367 6.28251,5.9711 L 4.19511,5.8831 C 4.253703,5.4485 4.37455,5.0408 4.55766,4.66 4.74076,4.2791 4.99101,3.9471 5.30839,3.6639 5.62577,3.3807 6.01517,3.1561 6.47659,2.99 6.93801,2.824 7.4739,2.741 8.08429,2.741 c 0.58593,0 1.1084,0.068 1.5674,0.2051 0.45898,0.1367 0.84838,0.3332 1.1682,0.5896 0.31982,0.2563 0.56396,0.5676 0.73242,0.9338 0.16845,0.3662 0.25268,0.7764 0.25268,1.2304 z m -5.0903,7.5146 v -1.9775 h 2.1167 v 1.9775 z" />
  <path
     id="path2996"
     style="fill:#ffeeaa;stroke:#6193cf;stroke-width:0.25"
     d="M 8,1.125 C 4.2023,1.125 1.125,4.2022 1.125,8 c 0,3.7977 3.0773,6.875 6.875,6.875 3.7977,0 6.875,-3.0773 6.875,-6.875 C 14.875,4.2022 11.798,1.125 8,1.125 Z M 8.0938,2.75 c 0.58593,0 1.1035,0.08165 1.5625,0.21875 0.45898,0.1367 0.83642,0.33735 1.1562,0.59375 0.31982,0.2563 0.58154,0.5713 0.75,0.9375 0.16845,0.3662 0.24999,0.76475 0.25,1.2188 -8e-6,0.3223 -0.03956,0.59965 -0.125,0.84375 -0.08546,0.2441 -0.20216,0.46335 -0.34375,0.65625 -0.14161,0.1929 -0.31934,0.37735 -0.5,0.53125 -0.18067,0.1539 -0.37208,0.3008 -0.5625,0.4375 -0.19,0.1368 -0.3479,0.2743 -0.531,0.4063 -0.1831,0.1318 -0.3535,0.2573 -0.5,0.4062 -0.1465,0.1488 -0.2822,0.3218 -0.375,0.5 -0.0928,0.1783 -0.1465,0.3905 -0.1562,0.625 h -1.9375 c 0.0244,-0.415 0.0961,-0.7669 0.2499,-1.0625 0.1539,-0.2954 0.3428,-0.5613 0.5626,-0.7813 0.2197,-0.2196 0.4697,-0.4202 0.7187,-0.5937 0.249,-0.1732 0.4751,-0.3505 0.6875,-0.5313 0.2124,-0.1804 0.3921,-0.3812 0.5312,-0.5937 0.1392,-0.2123 0.1875,-0.4569 0.1876,-0.75 -10e-5,-0.4296 -0.1255,-0.7823 -0.4063,-1.0313 -0.2808,-0.249 -0.6699,-0.375 -1.1875,-0.375 -0.24903,0 -0.47754,0.0495 -0.6875,0.125 -0.20996,0.076 -0.40381,0.1758 -0.5625,0.3125 -0.15869,0.1368 -0.30371,0.3046 -0.40625,0.5 -0.1026,0.1953 -0.1583,0.4219 -0.1876,0.6563 L 4.1877,5.90625 c 0.0586,-0.4346 0.1919,-0.8379 0.375,-1.2187 0.1831,-0.3809 0.4326,-0.7168 0.75,-1 0.3174,-0.2832 0.6948,-0.5214 1.1563,-0.6875 0.4614,-0.166 1.0146,-0.25 1.625,-0.25 z m -1.375,8.5 h 2.125 v 2 h -2.125 z" />
  <metadata
     id="metadata5">
    <rdf:RDF>
      <cc:Work>
        <dc:format>image/svg+xml</dc:format>
        <dc:type
           rdf:resource="http://purl.org/dc/dcmitype/StillImage" />
        <cc:license
           rdf:resource="http://creativecommons.org/licenses/publicdomain/" />
        <dc:publisher>
          <cc:Agent
             rdf:about="http://openclipart.org/">
            <dc:title>Openclipart</dc:title>
          </cc:Agent>
        </dc:publisher>
      </cc:Work>
      <cc:License
         rdf:about="http://creativecommons.org/licenses/publicdomain/">
        <cc:permits
           rdf:resource="http://creativecommons.org/ns#Reproduction" />
        <cc:permits
           rdf:resource="http://creativecommons.org/ns#Distribution" />
        <cc:permits
           rdf:resource="http://creativecommons.org/ns#DerivativeWorks" />
      </cc:License>
    </rdf:RDF>
  </metadata>
</svg>
